<mxfile host="app.diagrams.net" agent="Mozilla/5.0 (Windows NT 10.0; Win64; x64) AppleWebKit/537.36 (KHTML, like Gecko) Chrome/134.0.0.0 Safari/537.36" version="26.1.3">
  <diagram name="Page-1" id="13e1069c-82ec-6db2-03f1-153e76fe0fe0">
    <mxGraphModel dx="3816" dy="4068" grid="1" gridSize="10" guides="1" tooltips="1" connect="1" arrows="1" fold="1" page="1" pageScale="1" pageWidth="1100" pageHeight="850" background="none" math="0" shadow="0">
      <root>
        <mxCell id="0" />
        <mxCell id="1" parent="0" />
        <mxCell id="wHWXGaC2DuD7eq64icSw-97" style="edgeStyle=orthogonalEdgeStyle;rounded=0;orthogonalLoop=1;jettySize=auto;html=1;entryX=0;entryY=0.5;entryDx=0;entryDy=0;" edge="1" parent="1" source="wHWXGaC2DuD7eq64icSw-1" target="wHWXGaC2DuD7eq64icSw-16">
          <mxGeometry relative="1" as="geometry">
            <Array as="points">
              <mxPoint x="130" y="170" />
              <mxPoint x="130" y="-540" />
            </Array>
          </mxGeometry>
        </mxCell>
        <mxCell id="wHWXGaC2DuD7eq64icSw-98" style="edgeStyle=orthogonalEdgeStyle;rounded=0;orthogonalLoop=1;jettySize=auto;html=1;entryX=0;entryY=0.5;entryDx=0;entryDy=0;" edge="1" parent="1" source="wHWXGaC2DuD7eq64icSw-1" target="wHWXGaC2DuD7eq64icSw-22">
          <mxGeometry relative="1" as="geometry">
            <Array as="points">
              <mxPoint x="150" y="180" />
              <mxPoint x="150" y="-360" />
            </Array>
          </mxGeometry>
        </mxCell>
        <mxCell id="wHWXGaC2DuD7eq64icSw-99" style="edgeStyle=orthogonalEdgeStyle;rounded=0;orthogonalLoop=1;jettySize=auto;html=1;entryX=0;entryY=0.5;entryDx=0;entryDy=0;" edge="1" parent="1" source="wHWXGaC2DuD7eq64icSw-1" target="wHWXGaC2DuD7eq64icSw-8">
          <mxGeometry relative="1" as="geometry">
            <Array as="points">
              <mxPoint x="240" y="200" />
              <mxPoint x="240" y="305" />
            </Array>
          </mxGeometry>
        </mxCell>
        <mxCell id="wHWXGaC2DuD7eq64icSw-100" style="edgeStyle=orthogonalEdgeStyle;rounded=0;orthogonalLoop=1;jettySize=auto;html=1;entryX=0;entryY=0.5;entryDx=0;entryDy=0;" edge="1" parent="1" source="wHWXGaC2DuD7eq64icSw-1" target="wHWXGaC2DuD7eq64icSw-13">
          <mxGeometry relative="1" as="geometry">
            <Array as="points">
              <mxPoint x="220" y="210" />
              <mxPoint x="220" y="405" />
            </Array>
          </mxGeometry>
        </mxCell>
        <mxCell id="wHWXGaC2DuD7eq64icSw-109" style="edgeStyle=orthogonalEdgeStyle;rounded=0;orthogonalLoop=1;jettySize=auto;html=1;entryX=0;entryY=0.5;entryDx=0;entryDy=0;" edge="1" parent="1" source="wHWXGaC2DuD7eq64icSw-1" target="wHWXGaC2DuD7eq64icSw-105">
          <mxGeometry relative="1" as="geometry">
            <Array as="points">
              <mxPoint x="200" y="230" />
              <mxPoint x="200" y="595" />
            </Array>
          </mxGeometry>
        </mxCell>
        <mxCell id="wHWXGaC2DuD7eq64icSw-206" style="edgeStyle=orthogonalEdgeStyle;rounded=0;orthogonalLoop=1;jettySize=auto;html=1;entryX=0;entryY=0.5;entryDx=0;entryDy=0;" edge="1" parent="1" source="wHWXGaC2DuD7eq64icSw-1" target="wHWXGaC2DuD7eq64icSw-193">
          <mxGeometry relative="1" as="geometry">
            <Array as="points">
              <mxPoint x="40" y="-1020" />
            </Array>
          </mxGeometry>
        </mxCell>
        <mxCell id="wHWXGaC2DuD7eq64icSw-207" style="edgeStyle=orthogonalEdgeStyle;rounded=0;orthogonalLoop=1;jettySize=auto;html=1;entryX=0;entryY=0.5;entryDx=0;entryDy=0;" edge="1" parent="1" source="wHWXGaC2DuD7eq64icSw-1" target="wHWXGaC2DuD7eq64icSw-194">
          <mxGeometry relative="1" as="geometry">
            <Array as="points">
              <mxPoint x="65" y="-925" />
            </Array>
          </mxGeometry>
        </mxCell>
        <mxCell id="wHWXGaC2DuD7eq64icSw-208" style="edgeStyle=orthogonalEdgeStyle;rounded=0;orthogonalLoop=1;jettySize=auto;html=1;entryX=0;entryY=0.5;entryDx=0;entryDy=0;" edge="1" parent="1" source="wHWXGaC2DuD7eq64icSw-1" target="wHWXGaC2DuD7eq64icSw-203">
          <mxGeometry relative="1" as="geometry">
            <Array as="points">
              <mxPoint x="80" y="-835" />
            </Array>
          </mxGeometry>
        </mxCell>
        <mxCell id="wHWXGaC2DuD7eq64icSw-210" style="edgeStyle=orthogonalEdgeStyle;rounded=0;orthogonalLoop=1;jettySize=auto;html=1;entryX=0;entryY=0.5;entryDx=0;entryDy=0;" edge="1" parent="1" source="wHWXGaC2DuD7eq64icSw-1" target="wHWXGaC2DuD7eq64icSw-199">
          <mxGeometry relative="1" as="geometry">
            <Array as="points">
              <mxPoint x="100" y="160" />
              <mxPoint x="100" y="-750" />
            </Array>
          </mxGeometry>
        </mxCell>
        <mxCell id="wHWXGaC2DuD7eq64icSw-212" style="edgeStyle=orthogonalEdgeStyle;rounded=0;orthogonalLoop=1;jettySize=auto;html=1;entryX=0;entryY=0.5;entryDx=0;entryDy=0;" edge="1" parent="1" source="wHWXGaC2DuD7eq64icSw-1" target="wHWXGaC2DuD7eq64icSw-190">
          <mxGeometry relative="1" as="geometry">
            <Array as="points">
              <mxPoint x="50" y="-980" />
            </Array>
          </mxGeometry>
        </mxCell>
        <mxCell id="wHWXGaC2DuD7eq64icSw-221" style="edgeStyle=orthogonalEdgeStyle;rounded=0;orthogonalLoop=1;jettySize=auto;html=1;entryX=0;entryY=0.5;entryDx=0;entryDy=0;" edge="1" parent="1" source="wHWXGaC2DuD7eq64icSw-1" target="wHWXGaC2DuD7eq64icSw-135">
          <mxGeometry relative="1" as="geometry">
            <Array as="points">
              <mxPoint x="30" y="-1082" />
            </Array>
          </mxGeometry>
        </mxCell>
        <mxCell id="wHWXGaC2DuD7eq64icSw-248" style="edgeStyle=orthogonalEdgeStyle;rounded=0;orthogonalLoop=1;jettySize=auto;html=1;entryX=0.5;entryY=1;entryDx=0;entryDy=0;" edge="1" parent="1" source="wHWXGaC2DuD7eq64icSw-1" target="wHWXGaC2DuD7eq64icSw-241">
          <mxGeometry relative="1" as="geometry">
            <Array as="points">
              <mxPoint x="10" y="215" />
              <mxPoint x="10" y="-1150" />
              <mxPoint x="160" y="-1150" />
            </Array>
          </mxGeometry>
        </mxCell>
        <mxCell id="wHWXGaC2DuD7eq64icSw-1" value="사용자 1" style="shape=umlActor;verticalLabelPosition=bottom;verticalAlign=top;html=1;outlineConnect=0;fontSize=20;" vertex="1" parent="1">
          <mxGeometry x="14" y="150" width="70" height="130" as="geometry" />
        </mxCell>
        <mxCell id="wHWXGaC2DuD7eq64icSw-4" value="일반 회원가입" style="ellipse;whiteSpace=wrap;html=1;" vertex="1" parent="1">
          <mxGeometry x="640" y="-600" width="120" height="50" as="geometry" />
        </mxCell>
        <mxCell id="wHWXGaC2DuD7eq64icSw-5" value="&lt;div&gt;SNS계정 로그인&lt;/div&gt;" style="ellipse;whiteSpace=wrap;html=1;" vertex="1" parent="1">
          <mxGeometry x="550" y="-360" width="140" height="40" as="geometry" />
        </mxCell>
        <mxCell id="wHWXGaC2DuD7eq64icSw-163" style="rounded=0;orthogonalLoop=1;jettySize=auto;html=1;entryX=1;entryY=0.5;entryDx=0;entryDy=0;exitX=0;exitY=0.5;exitDx=0;exitDy=0;" edge="1" parent="1" source="wHWXGaC2DuD7eq64icSw-157" target="wHWXGaC2DuD7eq64icSw-7">
          <mxGeometry relative="1" as="geometry" />
        </mxCell>
        <mxCell id="wHWXGaC2DuD7eq64icSw-7" value="상세한 정보 조회" style="ellipse;whiteSpace=wrap;html=1;" vertex="1" parent="1">
          <mxGeometry x="790" y="190" width="120" height="90" as="geometry" />
        </mxCell>
        <mxCell id="wHWXGaC2DuD7eq64icSw-8" value="공연/전시&lt;div&gt;추천 목록 조회&lt;/div&gt;" style="ellipse;whiteSpace=wrap;html=1;" vertex="1" parent="1">
          <mxGeometry x="570" y="270" width="140" height="70" as="geometry" />
        </mxCell>
        <mxCell id="wHWXGaC2DuD7eq64icSw-11" value="게시판&lt;div&gt;즐겨찾기 설정&lt;/div&gt;" style="ellipse;whiteSpace=wrap;html=1;" vertex="1" parent="1">
          <mxGeometry x="755" y="-55" width="90" height="45" as="geometry" />
        </mxCell>
        <mxCell id="wHWXGaC2DuD7eq64icSw-13" value="전체 공연/전시 일정을&lt;div&gt;달력으로 조회&lt;/div&gt;" style="ellipse;whiteSpace=wrap;html=1;" vertex="1" parent="1">
          <mxGeometry x="455" y="370" width="165" height="70" as="geometry" />
        </mxCell>
        <mxCell id="wHWXGaC2DuD7eq64icSw-16" value="회원가입" style="ellipse;whiteSpace=wrap;html=1;" vertex="1" parent="1">
          <mxGeometry x="520" y="-575" width="100" height="70" as="geometry" />
        </mxCell>
        <mxCell id="wHWXGaC2DuD7eq64icSw-18" value="SNS계정 회원가인" style="ellipse;whiteSpace=wrap;html=1;" vertex="1" parent="1">
          <mxGeometry x="680" y="-540" width="120" height="40" as="geometry" />
        </mxCell>
        <mxCell id="wHWXGaC2DuD7eq64icSw-19" value="" style="edgeStyle=none;html=1;endSize=12;endArrow=block;endFill=0;rounded=0;entryX=1;entryY=0;entryDx=0;entryDy=0;exitX=0;exitY=0.5;exitDx=0;exitDy=0;" edge="1" parent="1" source="wHWXGaC2DuD7eq64icSw-4" target="wHWXGaC2DuD7eq64icSw-16">
          <mxGeometry width="160" relative="1" as="geometry">
            <mxPoint x="410" y="-270" as="sourcePoint" />
            <mxPoint x="570" y="-270" as="targetPoint" />
          </mxGeometry>
        </mxCell>
        <mxCell id="wHWXGaC2DuD7eq64icSw-20" value="" style="edgeStyle=none;html=1;endSize=12;endArrow=block;endFill=0;rounded=0;entryX=0.983;entryY=0.781;entryDx=0;entryDy=0;exitX=0;exitY=0.5;exitDx=0;exitDy=0;entryPerimeter=0;" edge="1" parent="1" source="wHWXGaC2DuD7eq64icSw-18" target="wHWXGaC2DuD7eq64icSw-16">
          <mxGeometry width="160" relative="1" as="geometry">
            <mxPoint x="410" y="-495" as="sourcePoint" />
            <mxPoint x="340" y="-440" as="targetPoint" />
          </mxGeometry>
        </mxCell>
        <mxCell id="wHWXGaC2DuD7eq64icSw-171" style="edgeStyle=orthogonalEdgeStyle;rounded=0;orthogonalLoop=1;jettySize=auto;html=1;entryX=0;entryY=0.5;entryDx=0;entryDy=0;exitX=1;exitY=0.3333333333333333;exitDx=0;exitDy=0;exitPerimeter=0;" edge="1" parent="1" source="wHWXGaC2DuD7eq64icSw-1" target="wHWXGaC2DuD7eq64icSw-111">
          <mxGeometry relative="1" as="geometry">
            <Array as="points">
              <mxPoint x="100" y="190" />
              <mxPoint x="180" y="190" />
              <mxPoint x="180" y="-155" />
            </Array>
          </mxGeometry>
        </mxCell>
        <mxCell id="wHWXGaC2DuD7eq64icSw-22" value="로그인" style="ellipse;whiteSpace=wrap;html=1;" vertex="1" parent="1">
          <mxGeometry x="340" y="-385" width="130" height="75" as="geometry" />
        </mxCell>
        <mxCell id="wHWXGaC2DuD7eq64icSw-23" value="일반 로그인" style="ellipse;whiteSpace=wrap;html=1;" vertex="1" parent="1">
          <mxGeometry x="530" y="-415" width="140" height="40" as="geometry" />
        </mxCell>
        <mxCell id="wHWXGaC2DuD7eq64icSw-26" value="" style="edgeStyle=none;html=1;endSize=12;endArrow=block;endFill=0;rounded=0;exitX=0;exitY=0.5;exitDx=0;exitDy=0;entryX=1;entryY=0;entryDx=0;entryDy=0;" edge="1" parent="1" source="wHWXGaC2DuD7eq64icSw-23" target="wHWXGaC2DuD7eq64icSw-22">
          <mxGeometry width="160" relative="1" as="geometry">
            <mxPoint x="410" y="-270" as="sourcePoint" />
            <mxPoint x="570" y="-270" as="targetPoint" />
          </mxGeometry>
        </mxCell>
        <mxCell id="wHWXGaC2DuD7eq64icSw-30" value="" style="edgeStyle=none;html=1;endSize=12;endArrow=block;endFill=0;rounded=0;exitX=0;exitY=0.5;exitDx=0;exitDy=0;entryX=1;entryY=0.5;entryDx=0;entryDy=0;" edge="1" parent="1" source="wHWXGaC2DuD7eq64icSw-5" target="wHWXGaC2DuD7eq64icSw-22">
          <mxGeometry width="160" relative="1" as="geometry">
            <mxPoint x="400" y="-370" as="sourcePoint" />
            <mxPoint x="340" y="-325" as="targetPoint" />
          </mxGeometry>
        </mxCell>
        <mxCell id="wHWXGaC2DuD7eq64icSw-103" style="rounded=0;orthogonalLoop=1;jettySize=auto;html=1;entryX=0.5;entryY=1;entryDx=0;entryDy=0;exitX=0.5;exitY=0;exitDx=0;exitDy=0;" edge="1" parent="1" source="wHWXGaC2DuD7eq64icSw-43" target="wHWXGaC2DuD7eq64icSw-7">
          <mxGeometry relative="1" as="geometry" />
        </mxCell>
        <mxCell id="wHWXGaC2DuD7eq64icSw-43" value="공연／전시 &lt;br&gt;전체 조건 키워드 검색" style="ellipse;whiteSpace=wrap;html=1;" vertex="1" parent="1">
          <mxGeometry x="640" y="470" width="150" height="50" as="geometry" />
        </mxCell>
        <mxCell id="wHWXGaC2DuD7eq64icSw-48" value="&amp;lt;&amp;lt;extend&amp;gt;&amp;gt;" style="edgeStyle=none;html=1;startArrow=open;endArrow=none;startSize=12;verticalAlign=bottom;dashed=1;labelBackgroundColor=none;rounded=0;entryX=0.5;entryY=1;entryDx=0;entryDy=0;exitX=0;exitY=0;exitDx=0;exitDy=0;" edge="1" parent="1" source="wHWXGaC2DuD7eq64icSw-7" target="wHWXGaC2DuD7eq64icSw-11">
          <mxGeometry width="160" relative="1" as="geometry">
            <mxPoint x="750" y="240" as="sourcePoint" />
            <mxPoint x="860" y="110" as="targetPoint" />
          </mxGeometry>
        </mxCell>
        <mxCell id="wHWXGaC2DuD7eq64icSw-52" value="예매일정&lt;div&gt;알림 설정&lt;/div&gt;" style="ellipse;whiteSpace=wrap;html=1;" vertex="1" parent="1">
          <mxGeometry x="840" y="-100" width="90" height="45" as="geometry" />
        </mxCell>
        <mxCell id="wHWXGaC2DuD7eq64icSw-54" value="&amp;lt;&amp;lt;extend&amp;gt;&amp;gt;" style="edgeStyle=none;html=1;startArrow=open;endArrow=none;startSize=12;verticalAlign=bottom;dashed=1;labelBackgroundColor=none;rounded=0;entryX=0.5;entryY=1;entryDx=0;entryDy=0;exitX=0.417;exitY=0;exitDx=0;exitDy=0;exitPerimeter=0;" edge="1" parent="1" target="wHWXGaC2DuD7eq64icSw-52" source="wHWXGaC2DuD7eq64icSw-7">
          <mxGeometry width="160" relative="1" as="geometry">
            <mxPoint x="550" y="-81" as="sourcePoint" />
            <mxPoint x="630" y="-140" as="targetPoint" />
          </mxGeometry>
        </mxCell>
        <mxCell id="wHWXGaC2DuD7eq64icSw-60" value="&amp;lt;&amp;lt;extends&amp;gt;&amp;gt;" style="edgeStyle=none;html=1;endSize=12;endArrow=open;endFill=0;rounded=0;entryX=1;entryY=0;entryDx=0;entryDy=0;exitX=0.251;exitY=0.86;exitDx=0;exitDy=0;dashed=1;exitPerimeter=0;" edge="1" parent="1" source="wHWXGaC2DuD7eq64icSw-150" target="wHWXGaC2DuD7eq64icSw-43">
          <mxGeometry width="160" relative="1" as="geometry">
            <mxPoint x="873.161445228189" y="399.6300404011181" as="sourcePoint" />
            <mxPoint x="740" y="399" as="targetPoint" />
          </mxGeometry>
        </mxCell>
        <mxCell id="wHWXGaC2DuD7eq64icSw-66" value="이메일인증" style="ellipse;whiteSpace=wrap;html=1;" vertex="1" parent="1">
          <mxGeometry x="810" y="-640" width="100" height="40" as="geometry" />
        </mxCell>
        <mxCell id="wHWXGaC2DuD7eq64icSw-67" value="&amp;lt;&amp;lt;include&amp;gt;&amp;gt;" style="edgeStyle=none;html=1;startArrow=open;endArrow=none;startSize=12;verticalAlign=bottom;dashed=1;labelBackgroundColor=none;rounded=0;exitX=0;exitY=0.5;exitDx=0;exitDy=0;entryX=1;entryY=0;entryDx=0;entryDy=0;" edge="1" parent="1" source="wHWXGaC2DuD7eq64icSw-66" target="wHWXGaC2DuD7eq64icSw-4">
          <mxGeometry width="160" relative="1" as="geometry">
            <mxPoint x="550" y="-530" as="sourcePoint" />
            <mxPoint x="710" y="-530" as="targetPoint" />
          </mxGeometry>
        </mxCell>
        <mxCell id="wHWXGaC2DuD7eq64icSw-68" value="SNS 계정&lt;div&gt;인증&amp;amp;인가&lt;/div&gt;" style="ellipse;whiteSpace=wrap;html=1;" vertex="1" parent="1">
          <mxGeometry x="830" y="-465" width="100" height="40" as="geometry" />
        </mxCell>
        <mxCell id="wHWXGaC2DuD7eq64icSw-69" value="&amp;lt;&amp;lt;include&amp;gt;&amp;gt;" style="edgeStyle=none;html=1;startArrow=open;endArrow=none;startSize=12;verticalAlign=bottom;dashed=1;labelBackgroundColor=none;rounded=0;exitX=0;exitY=0;exitDx=0;exitDy=0;entryX=0.5;entryY=1;entryDx=0;entryDy=0;" edge="1" parent="1" source="wHWXGaC2DuD7eq64icSw-68" target="wHWXGaC2DuD7eq64icSw-18">
          <mxGeometry width="160" relative="1" as="geometry">
            <mxPoint x="637.5" y="-415" as="sourcePoint" />
            <mxPoint x="550" y="-430" as="targetPoint" />
          </mxGeometry>
        </mxCell>
        <mxCell id="wHWXGaC2DuD7eq64icSw-82" style="edgeStyle=orthogonalEdgeStyle;rounded=0;orthogonalLoop=1;jettySize=auto;html=1;entryX=0.5;entryY=0;entryDx=0;entryDy=0;endArrow=none;startFill=0;" edge="1" parent="1" source="wHWXGaC2DuD7eq64icSw-70" target="wHWXGaC2DuD7eq64icSw-73">
          <mxGeometry relative="1" as="geometry">
            <Array as="points">
              <mxPoint x="1256" y="-830" />
              <mxPoint x="979" y="-830" />
            </Array>
          </mxGeometry>
        </mxCell>
        <mxCell id="wHWXGaC2DuD7eq64icSw-70" value="구글" style="shape=umlActor;verticalLabelPosition=top;verticalAlign=bottom;html=1;outlineConnect=0;labelPosition=center;align=center;fontSize=20;" vertex="1" parent="1">
          <mxGeometry x="1221.25" y="-1420" width="70" height="130" as="geometry" />
        </mxCell>
        <mxCell id="wHWXGaC2DuD7eq64icSw-81" style="edgeStyle=orthogonalEdgeStyle;rounded=0;orthogonalLoop=1;jettySize=auto;html=1;entryX=0.5;entryY=0;entryDx=0;entryDy=0;endArrow=none;startFill=0;" edge="1" parent="1" source="wHWXGaC2DuD7eq64icSw-71" target="wHWXGaC2DuD7eq64icSw-74">
          <mxGeometry relative="1" as="geometry">
            <Array as="points">
              <mxPoint x="1356" y="-720" />
              <mxPoint x="1070" y="-720" />
            </Array>
          </mxGeometry>
        </mxCell>
        <mxCell id="wHWXGaC2DuD7eq64icSw-71" value="네이버" style="shape=umlActor;verticalLabelPosition=top;verticalAlign=bottom;html=1;outlineConnect=0;labelPosition=center;align=center;fontSize=20;" vertex="1" parent="1">
          <mxGeometry x="1321.25" y="-1420" width="70" height="130" as="geometry" />
        </mxCell>
        <mxCell id="wHWXGaC2DuD7eq64icSw-83" style="edgeStyle=orthogonalEdgeStyle;rounded=0;orthogonalLoop=1;jettySize=auto;html=1;entryX=0.5;entryY=0;entryDx=0;entryDy=0;endArrow=none;startFill=0;" edge="1" parent="1" source="wHWXGaC2DuD7eq64icSw-72" target="wHWXGaC2DuD7eq64icSw-77">
          <mxGeometry relative="1" as="geometry">
            <Array as="points">
              <mxPoint x="1456" y="-460" />
            </Array>
          </mxGeometry>
        </mxCell>
        <mxCell id="wHWXGaC2DuD7eq64icSw-72" value="카카오" style="shape=umlActor;verticalLabelPosition=top;verticalAlign=bottom;html=1;outlineConnect=0;labelPosition=center;align=center;fontSize=20;" vertex="1" parent="1">
          <mxGeometry x="1421.25" y="-1420" width="70" height="130" as="geometry" />
        </mxCell>
        <mxCell id="wHWXGaC2DuD7eq64icSw-73" value="구글 계정 인증&amp;amp;인가" style="ellipse;whiteSpace=wrap;html=1;" vertex="1" parent="1">
          <mxGeometry x="915.5" y="-560" width="127.5" height="40" as="geometry" />
        </mxCell>
        <mxCell id="wHWXGaC2DuD7eq64icSw-74" value="네이버 계정 인증&amp;amp;인가" style="ellipse;whiteSpace=wrap;html=1;" vertex="1" parent="1">
          <mxGeometry x="1000" y="-510" width="140" height="40" as="geometry" />
        </mxCell>
        <mxCell id="wHWXGaC2DuD7eq64icSw-75" value="" style="edgeStyle=none;html=1;endSize=12;endArrow=block;endFill=0;rounded=0;entryX=0.5;entryY=0;entryDx=0;entryDy=0;exitX=0;exitY=1;exitDx=0;exitDy=0;" edge="1" parent="1" source="wHWXGaC2DuD7eq64icSw-73" target="wHWXGaC2DuD7eq64icSw-68">
          <mxGeometry width="160" relative="1" as="geometry">
            <mxPoint x="903" y="-340" as="sourcePoint" />
            <mxPoint x="823" y="-535" as="targetPoint" />
          </mxGeometry>
        </mxCell>
        <mxCell id="wHWXGaC2DuD7eq64icSw-76" value="" style="edgeStyle=none;html=1;endSize=12;endArrow=block;endFill=0;rounded=0;entryX=1;entryY=0;entryDx=0;entryDy=0;exitX=0;exitY=1;exitDx=0;exitDy=0;" edge="1" parent="1" source="wHWXGaC2DuD7eq64icSw-74" target="wHWXGaC2DuD7eq64icSw-68">
          <mxGeometry width="160" relative="1" as="geometry">
            <mxPoint x="903" y="-565" as="sourcePoint" />
            <mxPoint x="823" y="-535" as="targetPoint" />
          </mxGeometry>
        </mxCell>
        <mxCell id="wHWXGaC2DuD7eq64icSw-77" value="카카오 계정 인증&amp;amp;인가" style="ellipse;whiteSpace=wrap;html=1;" vertex="1" parent="1">
          <mxGeometry x="1080" y="-460" width="140" height="40" as="geometry" />
        </mxCell>
        <mxCell id="wHWXGaC2DuD7eq64icSw-78" value="" style="edgeStyle=none;html=1;endSize=12;endArrow=block;endFill=0;rounded=0;entryX=1;entryY=0.5;entryDx=0;entryDy=0;exitX=0;exitY=0.5;exitDx=0;exitDy=0;" edge="1" parent="1" source="wHWXGaC2DuD7eq64icSw-77" target="wHWXGaC2DuD7eq64icSw-68">
          <mxGeometry width="160" relative="1" as="geometry">
            <mxPoint x="913" y="-470" as="sourcePoint" />
            <mxPoint x="833" y="-440" as="targetPoint" />
          </mxGeometry>
        </mxCell>
        <mxCell id="wHWXGaC2DuD7eq64icSw-85" value="&amp;lt;&amp;lt;extend&amp;gt;&amp;gt;" style="edgeStyle=none;html=1;startArrow=open;endArrow=none;startSize=12;verticalAlign=bottom;dashed=1;labelBackgroundColor=none;rounded=0;exitX=1;exitY=0.5;exitDx=0;exitDy=0;entryX=0;entryY=0.5;entryDx=0;entryDy=0;" edge="1" parent="1" source="wHWXGaC2DuD7eq64icSw-8" target="wHWXGaC2DuD7eq64icSw-7">
          <mxGeometry width="160" relative="1" as="geometry">
            <mxPoint x="530" y="400" as="sourcePoint" />
            <mxPoint x="690" y="400" as="targetPoint" />
          </mxGeometry>
        </mxCell>
        <mxCell id="wHWXGaC2DuD7eq64icSw-95" value="&amp;lt;&amp;lt;include&amp;gt;&amp;gt;" style="edgeStyle=none;html=1;startArrow=open;endArrow=none;startSize=12;verticalAlign=bottom;dashed=1;labelBackgroundColor=none;rounded=0;exitX=0;exitY=1;exitDx=0;exitDy=0;entryX=0.5;entryY=0;entryDx=0;entryDy=0;" edge="1" parent="1" source="wHWXGaC2DuD7eq64icSw-68" target="wHWXGaC2DuD7eq64icSw-5">
          <mxGeometry width="160" relative="1" as="geometry">
            <mxPoint x="693" y="-455" as="sourcePoint" />
            <mxPoint x="540" y="-440" as="targetPoint" />
          </mxGeometry>
        </mxCell>
        <mxCell id="wHWXGaC2DuD7eq64icSw-96" value="&amp;lt;&amp;lt;include&amp;gt;&amp;gt;" style="html=1;verticalAlign=bottom;labelBackgroundColor=none;endArrow=open;endFill=0;dashed=1;rounded=0;entryX=0.741;entryY=0.993;entryDx=0;entryDy=0;exitX=0;exitY=0;exitDx=0;exitDy=0;entryPerimeter=0;" edge="1" parent="1" source="wHWXGaC2DuD7eq64icSw-11" target="wHWXGaC2DuD7eq64icSw-22">
          <mxGeometry width="160" relative="1" as="geometry">
            <mxPoint x="430" y="-270" as="sourcePoint" />
            <mxPoint x="590" y="-270" as="targetPoint" />
          </mxGeometry>
        </mxCell>
        <mxCell id="wHWXGaC2DuD7eq64icSw-105" value="정보 검색 기능" style="ellipse;whiteSpace=wrap;html=1;" vertex="1" parent="1">
          <mxGeometry x="430" y="570" width="130" height="50" as="geometry" />
        </mxCell>
        <mxCell id="wHWXGaC2DuD7eq64icSw-111" value="채팅기능" style="ellipse;whiteSpace=wrap;html=1;" vertex="1" parent="1">
          <mxGeometry x="260" y="-180" width="100" height="50" as="geometry" />
        </mxCell>
        <mxCell id="wHWXGaC2DuD7eq64icSw-116" value="예매일정&lt;div&gt;알림 추가&lt;/div&gt;" style="ellipse;whiteSpace=wrap;html=1;" vertex="1" parent="1">
          <mxGeometry x="964.25" y="-190" width="90" height="45" as="geometry" />
        </mxCell>
        <mxCell id="wHWXGaC2DuD7eq64icSw-117" value="예매일정&lt;div&gt;알림 해제&lt;/div&gt;" style="ellipse;whiteSpace=wrap;html=1;" vertex="1" parent="1">
          <mxGeometry x="1040" y="-127.5" width="90" height="40" as="geometry" />
        </mxCell>
        <mxCell id="wHWXGaC2DuD7eq64icSw-118" value="&amp;lt;&amp;lt;include&amp;gt;&amp;gt;" style="html=1;verticalAlign=bottom;labelBackgroundColor=none;endArrow=open;endFill=0;dashed=1;rounded=0;entryX=1;entryY=1;entryDx=0;entryDy=0;exitX=0;exitY=0;exitDx=0;exitDy=0;" edge="1" parent="1" source="wHWXGaC2DuD7eq64icSw-52" target="wHWXGaC2DuD7eq64icSw-22">
          <mxGeometry width="160" relative="1" as="geometry">
            <mxPoint x="473" y="-203" as="sourcePoint" />
            <mxPoint x="321" y="-307" as="targetPoint" />
          </mxGeometry>
        </mxCell>
        <mxCell id="wHWXGaC2DuD7eq64icSw-119" value="즐겨찾기 추가" style="ellipse;whiteSpace=wrap;html=1;" vertex="1" parent="1">
          <mxGeometry x="620" y="-72.5" width="90" height="45" as="geometry" />
        </mxCell>
        <mxCell id="wHWXGaC2DuD7eq64icSw-120" value="즐겨찾기 삭제" style="ellipse;whiteSpace=wrap;html=1;" vertex="1" parent="1">
          <mxGeometry x="637.5" y="-10" width="90" height="40" as="geometry" />
        </mxCell>
        <mxCell id="wHWXGaC2DuD7eq64icSw-121" value="" style="edgeStyle=none;html=1;endSize=12;endArrow=block;endFill=0;rounded=0;entryX=0;entryY=0.5;entryDx=0;entryDy=0;exitX=1;exitY=0.5;exitDx=0;exitDy=0;" edge="1" parent="1" source="wHWXGaC2DuD7eq64icSw-119" target="wHWXGaC2DuD7eq64icSw-11">
          <mxGeometry width="160" relative="1" as="geometry">
            <mxPoint x="600" y="130" as="sourcePoint" />
            <mxPoint x="760" y="130" as="targetPoint" />
          </mxGeometry>
        </mxCell>
        <mxCell id="wHWXGaC2DuD7eq64icSw-122" value="" style="edgeStyle=none;html=1;endSize=12;endArrow=block;endFill=0;rounded=0;entryX=0;entryY=1;entryDx=0;entryDy=0;exitX=1;exitY=0;exitDx=0;exitDy=0;" edge="1" parent="1" source="wHWXGaC2DuD7eq64icSw-120" target="wHWXGaC2DuD7eq64icSw-11">
          <mxGeometry width="160" relative="1" as="geometry">
            <mxPoint x="590" y="103" as="sourcePoint" />
            <mxPoint x="620" y="88" as="targetPoint" />
          </mxGeometry>
        </mxCell>
        <mxCell id="wHWXGaC2DuD7eq64icSw-123" value="" style="edgeStyle=none;html=1;endSize=12;endArrow=block;endFill=0;rounded=0;entryX=1;entryY=0;entryDx=0;entryDy=0;exitX=0;exitY=1;exitDx=0;exitDy=0;" edge="1" parent="1" source="wHWXGaC2DuD7eq64icSw-116" target="wHWXGaC2DuD7eq64icSw-52">
          <mxGeometry width="160" relative="1" as="geometry">
            <mxPoint x="410" y="-97" as="sourcePoint" />
            <mxPoint x="440" y="-112" as="targetPoint" />
          </mxGeometry>
        </mxCell>
        <mxCell id="wHWXGaC2DuD7eq64icSw-124" value="" style="edgeStyle=none;html=1;endSize=12;endArrow=block;endFill=0;rounded=0;entryX=1;entryY=0.5;entryDx=0;entryDy=0;exitX=0;exitY=0.5;exitDx=0;exitDy=0;" edge="1" parent="1" source="wHWXGaC2DuD7eq64icSw-117" target="wHWXGaC2DuD7eq64icSw-52">
          <mxGeometry width="160" relative="1" as="geometry">
            <mxPoint x="610" y="123" as="sourcePoint" />
            <mxPoint x="640" y="108" as="targetPoint" />
          </mxGeometry>
        </mxCell>
        <mxCell id="wHWXGaC2DuD7eq64icSw-126" value="게시글(후기) &lt;br&gt;전체 &lt;b&gt;조건&lt;/b&gt; 키워드 검색" style="ellipse;whiteSpace=wrap;html=1;" vertex="1" parent="1">
          <mxGeometry x="824.25" y="635" width="140" height="60" as="geometry" />
        </mxCell>
        <mxCell id="wHWXGaC2DuD7eq64icSw-127" value="" style="edgeStyle=none;html=1;endSize=12;endArrow=block;endFill=0;rounded=0;exitX=0;exitY=1;exitDx=0;exitDy=0;entryX=1;entryY=0;entryDx=0;entryDy=0;" edge="1" parent="1" source="wHWXGaC2DuD7eq64icSw-43" target="wHWXGaC2DuD7eq64icSw-105">
          <mxGeometry width="160" relative="1" as="geometry">
            <mxPoint x="530" y="580" as="sourcePoint" />
            <mxPoint x="500" y="500" as="targetPoint" />
          </mxGeometry>
        </mxCell>
        <mxCell id="wHWXGaC2DuD7eq64icSw-128" value="" style="edgeStyle=none;html=1;endSize=12;endArrow=block;endFill=0;rounded=0;exitX=0;exitY=0;exitDx=0;exitDy=0;entryX=1;entryY=1;entryDx=0;entryDy=0;" edge="1" parent="1" source="wHWXGaC2DuD7eq64icSw-126" target="wHWXGaC2DuD7eq64icSw-105">
          <mxGeometry width="160" relative="1" as="geometry">
            <mxPoint x="710" y="521" as="sourcePoint" />
            <mxPoint x="541" y="587" as="targetPoint" />
          </mxGeometry>
        </mxCell>
        <mxCell id="wHWXGaC2DuD7eq64icSw-130" value="" style="edgeStyle=none;html=1;endSize=12;endArrow=block;endFill=0;rounded=0;exitX=0;exitY=0.5;exitDx=0;exitDy=0;entryX=1;entryY=0;entryDx=0;entryDy=0;" edge="1" parent="1" source="wHWXGaC2DuD7eq64icSw-140" target="wHWXGaC2DuD7eq64icSw-143">
          <mxGeometry width="160" relative="1" as="geometry">
            <mxPoint x="792.4496991672022" y="630.5429001189714" as="sourcePoint" />
            <mxPoint x="950" y="610" as="targetPoint" />
          </mxGeometry>
        </mxCell>
        <mxCell id="wHWXGaC2DuD7eq64icSw-132" value="" style="edgeStyle=none;html=1;endSize=12;endArrow=block;endFill=0;rounded=0;exitX=0;exitY=0.5;exitDx=0;exitDy=0;entryX=1;entryY=0.5;entryDx=0;entryDy=0;" edge="1" parent="1" source="wHWXGaC2DuD7eq64icSw-142" target="wHWXGaC2DuD7eq64icSw-143">
          <mxGeometry width="160" relative="1" as="geometry">
            <mxPoint x="789.1586447931716" y="665.5695807576417" as="sourcePoint" />
            <mxPoint x="1000" y="620" as="targetPoint" />
          </mxGeometry>
        </mxCell>
        <mxCell id="wHWXGaC2DuD7eq64icSw-134" value="" style="edgeStyle=none;html=1;endSize=12;endArrow=block;endFill=0;rounded=0;exitX=0;exitY=0.5;exitDx=0;exitDy=0;entryX=1;entryY=1;entryDx=0;entryDy=0;" edge="1" parent="1" source="wHWXGaC2DuD7eq64icSw-141" target="wHWXGaC2DuD7eq64icSw-143">
          <mxGeometry width="160" relative="1" as="geometry">
            <mxPoint x="777.5" y="710" as="sourcePoint" />
            <mxPoint x="1020" y="650" as="targetPoint" />
          </mxGeometry>
        </mxCell>
        <mxCell id="wHWXGaC2DuD7eq64icSw-135" value="(현재 미등록된)&lt;div&gt;공연/전시 등록 신청&lt;/div&gt;" style="ellipse;whiteSpace=wrap;html=1;" vertex="1" parent="1">
          <mxGeometry x="672.5" y="-1115" width="145" height="65" as="geometry" />
        </mxCell>
        <mxCell id="wHWXGaC2DuD7eq64icSw-140" value="제목으로 검색" style="ellipse;whiteSpace=wrap;html=1;" vertex="1" parent="1">
          <mxGeometry x="1290" y="640" width="120" height="30" as="geometry" />
        </mxCell>
        <mxCell id="wHWXGaC2DuD7eq64icSw-141" value="내용으로 검색" style="ellipse;whiteSpace=wrap;html=1;" vertex="1" parent="1">
          <mxGeometry x="1302.5" y="750" width="107.5" height="40" as="geometry" />
        </mxCell>
        <mxCell id="wHWXGaC2DuD7eq64icSw-142" value="작성자로 검색" style="ellipse;whiteSpace=wrap;html=1;" vertex="1" parent="1">
          <mxGeometry x="1310" y="710" width="110" height="30" as="geometry" />
        </mxCell>
        <mxCell id="wHWXGaC2DuD7eq64icSw-143" value="&lt;div&gt;&lt;span style=&quot;background-color: transparent; color: light-dark(rgb(0, 0, 0), rgb(255, 255, 255));&quot;&gt;&lt;b&gt;조건&lt;/b&gt; 필터링 검색&lt;/span&gt;&lt;/div&gt;" style="ellipse;whiteSpace=wrap;html=1;" vertex="1" parent="1">
          <mxGeometry x="1100" y="685" width="140" height="50" as="geometry" />
        </mxCell>
        <mxCell id="wHWXGaC2DuD7eq64icSw-145" value="&amp;lt;&amp;lt; extends &amp;gt;&amp;gt;" style="edgeStyle=none;html=1;endSize=12;endArrow=open;endFill=0;rounded=0;exitX=0;exitY=0.5;exitDx=0;exitDy=0;entryX=1;entryY=0.5;entryDx=0;entryDy=0;dashed=1;" edge="1" parent="1" source="wHWXGaC2DuD7eq64icSw-143" target="wHWXGaC2DuD7eq64icSw-126">
          <mxGeometry width="160" relative="1" as="geometry">
            <mxPoint x="890" y="575" as="sourcePoint" />
            <mxPoint x="779" y="522" as="targetPoint" />
          </mxGeometry>
        </mxCell>
        <mxCell id="wHWXGaC2DuD7eq64icSw-146" value="운영기간으로 검색" style="ellipse;whiteSpace=wrap;html=1;" vertex="1" parent="1">
          <mxGeometry x="1020" y="390" width="110" height="50" as="geometry" />
        </mxCell>
        <mxCell id="wHWXGaC2DuD7eq64icSw-147" value="키워드로 검색" style="ellipse;whiteSpace=wrap;html=1;" vertex="1" parent="1">
          <mxGeometry x="1005.5" y="330" width="110" height="50" as="geometry" />
        </mxCell>
        <mxCell id="wHWXGaC2DuD7eq64icSw-148" value="분류로 검색&lt;div&gt;（콘서트／연극／뮤지컬&lt;/div&gt;&lt;div&gt;／전시회／박람회）&lt;/div&gt;" style="ellipse;whiteSpace=wrap;html=1;" vertex="1" parent="1">
          <mxGeometry x="955.5" y="250" width="160" height="70" as="geometry" />
        </mxCell>
        <mxCell id="wHWXGaC2DuD7eq64icSw-149" value="판매중/판매종료&lt;div&gt;여부로 검색&lt;/div&gt;" style="ellipse;whiteSpace=wrap;html=1;" vertex="1" parent="1">
          <mxGeometry x="964.25" y="450" width="110" height="50" as="geometry" />
        </mxCell>
        <mxCell id="wHWXGaC2DuD7eq64icSw-156" style="rounded=0;orthogonalLoop=1;jettySize=auto;html=1;entryX=1;entryY=1;entryDx=0;entryDy=0;" edge="1" parent="1" source="wHWXGaC2DuD7eq64icSw-150" target="wHWXGaC2DuD7eq64icSw-7">
          <mxGeometry relative="1" as="geometry" />
        </mxCell>
        <mxCell id="wHWXGaC2DuD7eq64icSw-150" value="검색 결과 내 재검색&lt;div&gt;(=&lt;b&gt;조건&lt;/b&gt; 필터링)&lt;/div&gt;" style="ellipse;whiteSpace=wrap;html=1;" vertex="1" parent="1">
          <mxGeometry x="825" y="360" width="147.5" height="50" as="geometry" />
        </mxCell>
        <mxCell id="wHWXGaC2DuD7eq64icSw-151" value="" style="edgeStyle=none;html=1;endSize=12;endArrow=block;endFill=0;rounded=0;exitX=0;exitY=1;exitDx=0;exitDy=0;entryX=1;entryY=0;entryDx=0;entryDy=0;" edge="1" parent="1" source="wHWXGaC2DuD7eq64icSw-148" target="wHWXGaC2DuD7eq64icSw-150">
          <mxGeometry width="160" relative="1" as="geometry">
            <mxPoint x="1035.5" y="417" as="sourcePoint" />
            <mxPoint x="955.5" y="450" as="targetPoint" />
          </mxGeometry>
        </mxCell>
        <mxCell id="wHWXGaC2DuD7eq64icSw-152" value="" style="edgeStyle=none;html=1;endSize=12;endArrow=block;endFill=0;rounded=0;exitX=0;exitY=1;exitDx=0;exitDy=0;entryX=1;entryY=0.5;entryDx=0;entryDy=0;" edge="1" parent="1" source="wHWXGaC2DuD7eq64icSw-147" target="wHWXGaC2DuD7eq64icSw-150">
          <mxGeometry width="160" relative="1" as="geometry">
            <mxPoint x="1030" y="295" as="sourcePoint" />
            <mxPoint x="962" y="378" as="targetPoint" />
          </mxGeometry>
        </mxCell>
        <mxCell id="wHWXGaC2DuD7eq64icSw-153" value="" style="edgeStyle=none;html=1;endSize=12;endArrow=block;endFill=0;rounded=0;exitX=0;exitY=0.5;exitDx=0;exitDy=0;entryX=1;entryY=1;entryDx=0;entryDy=0;" edge="1" parent="1" source="wHWXGaC2DuD7eq64icSw-146" target="wHWXGaC2DuD7eq64icSw-150">
          <mxGeometry width="160" relative="1" as="geometry">
            <mxPoint x="1070" y="365" as="sourcePoint" />
            <mxPoint x="982" y="395" as="targetPoint" />
          </mxGeometry>
        </mxCell>
        <mxCell id="wHWXGaC2DuD7eq64icSw-154" value="" style="edgeStyle=none;html=1;endSize=12;endArrow=block;endFill=0;rounded=0;exitX=0;exitY=0;exitDx=0;exitDy=0;entryX=0.662;entryY=0.953;entryDx=0;entryDy=0;entryPerimeter=0;" edge="1" parent="1" source="wHWXGaC2DuD7eq64icSw-149" target="wHWXGaC2DuD7eq64icSw-150">
          <mxGeometry width="160" relative="1" as="geometry">
            <mxPoint x="1070" y="425" as="sourcePoint" />
            <mxPoint x="962" y="412" as="targetPoint" />
          </mxGeometry>
        </mxCell>
        <mxCell id="wHWXGaC2DuD7eq64icSw-157" value="공연/전시 1개의&amp;nbsp;&lt;div&gt;후기게시판 목록 조회&lt;/div&gt;" style="ellipse;whiteSpace=wrap;html=1;" vertex="1" parent="1">
          <mxGeometry x="1229.5" y="190" width="140.5" height="90" as="geometry" />
        </mxCell>
        <mxCell id="wHWXGaC2DuD7eq64icSw-158" value="게시글 1개 조회" style="ellipse;whiteSpace=wrap;html=1;" vertex="1" parent="1">
          <mxGeometry x="1230" y="390" width="140" height="80" as="geometry" />
        </mxCell>
        <mxCell id="wHWXGaC2DuD7eq64icSw-159" value="&amp;lt;&amp;lt; extends &amp;gt;&amp;gt;" style="edgeStyle=none;html=1;endSize=12;endArrow=open;endFill=0;rounded=0;entryX=0.5;entryY=0;entryDx=0;entryDy=0;dashed=1;exitX=0.5;exitY=1;exitDx=0;exitDy=0;" edge="1" parent="1" source="wHWXGaC2DuD7eq64icSw-158" target="wHWXGaC2DuD7eq64icSw-143">
          <mxGeometry width="160" relative="1" as="geometry">
            <mxPoint x="1340" y="370" as="sourcePoint" />
            <mxPoint x="1330" y="410" as="targetPoint" />
          </mxGeometry>
        </mxCell>
        <mxCell id="wHWXGaC2DuD7eq64icSw-162" value="&amp;lt;&amp;lt; extends &amp;gt;&amp;gt;" style="edgeStyle=none;html=1;endSize=12;endArrow=open;endFill=0;rounded=0;entryX=0.5;entryY=0;entryDx=0;entryDy=0;dashed=1;exitX=0;exitY=1;exitDx=0;exitDy=0;" edge="1" parent="1" source="wHWXGaC2DuD7eq64icSw-158" target="wHWXGaC2DuD7eq64icSw-126">
          <mxGeometry width="160" relative="1" as="geometry">
            <mxPoint x="1336" y="420" as="sourcePoint" />
            <mxPoint x="1180" y="695" as="targetPoint" />
          </mxGeometry>
        </mxCell>
        <mxCell id="wHWXGaC2DuD7eq64icSw-164" value="예매정보&lt;div&gt;조회&lt;/div&gt;" style="ellipse;whiteSpace=wrap;html=1;" vertex="1" parent="1">
          <mxGeometry x="920" y="70" width="80" height="50" as="geometry" />
        </mxCell>
        <mxCell id="wHWXGaC2DuD7eq64icSw-165" value="평점(별점)&lt;div&gt;후기 조회&lt;/div&gt;" style="ellipse;whiteSpace=wrap;html=1;" vertex="1" parent="1">
          <mxGeometry x="1005.5" y="80" width="75" height="60" as="geometry" />
        </mxCell>
        <mxCell id="wHWXGaC2DuD7eq64icSw-166" value="&amp;lt;&amp;lt; extends &amp;gt;&amp;gt;" style="edgeStyle=none;html=1;endSize=12;endArrow=open;endFill=0;rounded=0;entryX=0.5;entryY=1;entryDx=0;entryDy=0;dashed=1;exitX=0.5;exitY=0;exitDx=0;exitDy=0;" edge="1" parent="1" source="wHWXGaC2DuD7eq64icSw-158" target="wHWXGaC2DuD7eq64icSw-157">
          <mxGeometry width="160" relative="1" as="geometry">
            <mxPoint x="1381" y="448" as="sourcePoint" />
            <mxPoint x="904" y="645" as="targetPoint" />
          </mxGeometry>
        </mxCell>
        <mxCell id="wHWXGaC2DuD7eq64icSw-167" value="" style="edgeStyle=none;html=1;endSize=12;endArrow=block;endFill=0;rounded=0;exitX=0;exitY=1;exitDx=0;exitDy=0;entryX=0.653;entryY=0.049;entryDx=0;entryDy=0;entryPerimeter=0;" edge="1" parent="1" source="wHWXGaC2DuD7eq64icSw-164" target="wHWXGaC2DuD7eq64icSw-7">
          <mxGeometry width="160" relative="1" as="geometry">
            <mxPoint x="1058.75" y="100" as="sourcePoint" />
            <mxPoint x="979.75" y="127" as="targetPoint" />
          </mxGeometry>
        </mxCell>
        <mxCell id="wHWXGaC2DuD7eq64icSw-168" value="" style="edgeStyle=none;html=1;endSize=12;endArrow=block;endFill=0;rounded=0;exitX=0;exitY=1;exitDx=0;exitDy=0;entryX=1;entryY=0;entryDx=0;entryDy=0;" edge="1" parent="1" source="wHWXGaC2DuD7eq64icSw-165" target="wHWXGaC2DuD7eq64icSw-7">
          <mxGeometry width="160" relative="1" as="geometry">
            <mxPoint x="804" y="103" as="sourcePoint" />
            <mxPoint x="790" y="230" as="targetPoint" />
          </mxGeometry>
        </mxCell>
        <mxCell id="wHWXGaC2DuD7eq64icSw-169" value="소개글 조회" style="ellipse;whiteSpace=wrap;html=1;" vertex="1" parent="1">
          <mxGeometry x="1080.5" y="120" width="80" height="60" as="geometry" />
        </mxCell>
        <mxCell id="wHWXGaC2DuD7eq64icSw-170" value="" style="edgeStyle=none;html=1;endSize=12;endArrow=block;endFill=0;rounded=0;exitX=0;exitY=1;exitDx=0;exitDy=0;entryX=0.961;entryY=0.297;entryDx=0;entryDy=0;entryPerimeter=0;" edge="1" parent="1" source="wHWXGaC2DuD7eq64icSw-169" target="wHWXGaC2DuD7eq64icSw-7">
          <mxGeometry width="160" relative="1" as="geometry">
            <mxPoint x="736.5" y="-107" as="sourcePoint" />
            <mxPoint x="722.5" y="20" as="targetPoint" />
          </mxGeometry>
        </mxCell>
        <mxCell id="wHWXGaC2DuD7eq64icSw-173" value="&amp;lt;&amp;lt;include&amp;gt;&amp;gt;" style="html=1;verticalAlign=bottom;labelBackgroundColor=none;endArrow=open;endFill=0;dashed=1;rounded=0;entryX=0.5;entryY=1;entryDx=0;entryDy=0;exitX=0.5;exitY=0;exitDx=0;exitDy=0;" edge="1" parent="1" source="wHWXGaC2DuD7eq64icSw-111" target="wHWXGaC2DuD7eq64icSw-22">
          <mxGeometry width="160" relative="1" as="geometry">
            <mxPoint x="601" y="190" as="sourcePoint" />
            <mxPoint x="290" y="-190" as="targetPoint" />
          </mxGeometry>
        </mxCell>
        <mxCell id="wHWXGaC2DuD7eq64icSw-175" value="공연/전시&lt;br&gt;실시간 소통&lt;div&gt;채팅방&amp;nbsp;&lt;span style=&quot;background-color: transparent; color: light-dark(rgb(0, 0, 0), rgb(255, 255, 255));&quot;&gt;참여(=입장)&lt;/span&gt;&lt;/div&gt;" style="ellipse;whiteSpace=wrap;html=1;" vertex="1" parent="1">
          <mxGeometry x="465" y="-112.5" width="125" height="70" as="geometry" />
        </mxCell>
        <mxCell id="wHWXGaC2DuD7eq64icSw-180" value="&amp;lt;&amp;lt;include&amp;gt;&amp;gt;" style="edgeStyle=none;html=1;startArrow=open;endArrow=none;startSize=12;verticalAlign=bottom;dashed=1;labelBackgroundColor=none;rounded=0;exitX=0.067;exitY=0.317;exitDx=0;exitDy=0;entryX=1;entryY=1;entryDx=0;entryDy=0;exitPerimeter=0;" edge="1" parent="1" source="wHWXGaC2DuD7eq64icSw-7" target="wHWXGaC2DuD7eq64icSw-175">
          <mxGeometry width="160" relative="1" as="geometry">
            <mxPoint x="737" y="249" as="sourcePoint" />
            <mxPoint x="705" y="45" as="targetPoint" />
          </mxGeometry>
        </mxCell>
        <mxCell id="wHWXGaC2DuD7eq64icSw-181" value="" style="edgeStyle=none;html=1;endSize=12;endArrow=block;endFill=0;rounded=0;entryX=1;entryY=0.5;entryDx=0;entryDy=0;exitX=0;exitY=0;exitDx=0;exitDy=0;" edge="1" parent="1" source="wHWXGaC2DuD7eq64icSw-175" target="wHWXGaC2DuD7eq64icSw-111">
          <mxGeometry width="160" relative="1" as="geometry">
            <mxPoint x="780" y="130" as="sourcePoint" />
            <mxPoint x="940" y="130" as="targetPoint" />
          </mxGeometry>
        </mxCell>
        <mxCell id="wHWXGaC2DuD7eq64icSw-182" value="공연/전시 후기게시판&lt;div&gt;게시글 작성&lt;/div&gt;" style="ellipse;whiteSpace=wrap;html=1;" vertex="1" parent="1">
          <mxGeometry x="285" y="50" width="160" height="60" as="geometry" />
        </mxCell>
        <mxCell id="wHWXGaC2DuD7eq64icSw-183" value="메세지 전송" style="ellipse;whiteSpace=wrap;html=1;" vertex="1" parent="1">
          <mxGeometry x="330" y="-62.5" width="90" height="60" as="geometry" />
        </mxCell>
        <mxCell id="wHWXGaC2DuD7eq64icSw-186" value="참여중인 채팅방 하트 수 증가" style="ellipse;whiteSpace=wrap;html=1;" vertex="1" parent="1">
          <mxGeometry x="445" y="-42.5" width="100" height="60" as="geometry" />
        </mxCell>
        <mxCell id="wHWXGaC2DuD7eq64icSw-187" value="평점(별점)&lt;div&gt;후기 작성&lt;/div&gt;" style="ellipse;whiteSpace=wrap;html=1;" vertex="1" parent="1">
          <mxGeometry x="1180.5" y="-197.5" width="75" height="60" as="geometry" />
        </mxCell>
        <mxCell id="wHWXGaC2DuD7eq64icSw-188" value="&amp;lt;&amp;lt;extend&amp;gt;&amp;gt;" style="edgeStyle=none;html=1;startArrow=open;endArrow=none;startSize=12;verticalAlign=bottom;dashed=1;labelBackgroundColor=none;rounded=0;entryX=0;entryY=1;entryDx=0;entryDy=0;exitX=1;exitY=0;exitDx=0;exitDy=0;" edge="1" parent="1" source="wHWXGaC2DuD7eq64icSw-165" target="wHWXGaC2DuD7eq64icSw-187">
          <mxGeometry width="160" relative="1" as="geometry">
            <mxPoint x="1277.5" y="65" as="sourcePoint" />
            <mxPoint x="1322.5" y="-180" as="targetPoint" />
          </mxGeometry>
        </mxCell>
        <mxCell id="wHWXGaC2DuD7eq64icSw-189" value="&amp;lt;&amp;lt;include&amp;gt;&amp;gt;" style="html=1;verticalAlign=bottom;labelBackgroundColor=none;endArrow=open;endFill=0;dashed=1;rounded=0;entryX=0.929;entryY=0.702;entryDx=0;entryDy=0;exitX=0.5;exitY=0;exitDx=0;exitDy=0;entryPerimeter=0;" edge="1" parent="1" source="wHWXGaC2DuD7eq64icSw-187" target="wHWXGaC2DuD7eq64icSw-22">
          <mxGeometry width="160" relative="1" as="geometry">
            <mxPoint x="863" y="-83" as="sourcePoint" />
            <mxPoint x="476" y="-338" as="targetPoint" />
          </mxGeometry>
        </mxCell>
        <mxCell id="wHWXGaC2DuD7eq64icSw-190" value="참여 채팅방&lt;div&gt;목록&amp;nbsp;&lt;span style=&quot;background-color: transparent; color: light-dark(rgb(0, 0, 0), rgb(255, 255, 255));&quot;&gt;조회&lt;/span&gt;&lt;/div&gt;" style="ellipse;whiteSpace=wrap;html=1;" vertex="1" parent="1">
          <mxGeometry x="450" y="-1010" width="100" height="60" as="geometry" />
        </mxCell>
        <mxCell id="wHWXGaC2DuD7eq64icSw-191" value="" style="edgeStyle=none;html=1;endSize=12;endArrow=block;endFill=0;rounded=0;entryX=0.5;entryY=1;entryDx=0;entryDy=0;exitX=0.5;exitY=0;exitDx=0;exitDy=0;" edge="1" parent="1" source="wHWXGaC2DuD7eq64icSw-183" target="wHWXGaC2DuD7eq64icSw-111">
          <mxGeometry width="160" relative="1" as="geometry">
            <mxPoint x="493" y="-77" as="sourcePoint" />
            <mxPoint x="370" y="-145" as="targetPoint" />
          </mxGeometry>
        </mxCell>
        <mxCell id="wHWXGaC2DuD7eq64icSw-192" value="" style="edgeStyle=none;html=1;endSize=12;endArrow=block;endFill=0;rounded=0;entryX=1;entryY=1;entryDx=0;entryDy=0;exitX=0;exitY=0;exitDx=0;exitDy=0;" edge="1" parent="1" source="wHWXGaC2DuD7eq64icSw-186" target="wHWXGaC2DuD7eq64icSw-111">
          <mxGeometry width="160" relative="1" as="geometry">
            <mxPoint x="375" y="-45" as="sourcePoint" />
            <mxPoint x="320" y="-120" as="targetPoint" />
          </mxGeometry>
        </mxCell>
        <mxCell id="wHWXGaC2DuD7eq64icSw-193" value="즐겨찾기 공연/전시&lt;br&gt;목록 조회" style="ellipse;whiteSpace=wrap;html=1;" vertex="1" parent="1">
          <mxGeometry x="552.5" y="-1050" width="120" height="60" as="geometry" />
        </mxCell>
        <mxCell id="wHWXGaC2DuD7eq64icSw-194" value="조회한 공연/전시목록 (=히스토리) 조회" style="ellipse;whiteSpace=wrap;html=1;" vertex="1" parent="1">
          <mxGeometry x="340" y="-960" width="130" height="70" as="geometry" />
        </mxCell>
        <mxCell id="wHWXGaC2DuD7eq64icSw-213" value="&amp;lt;&amp;lt;include&amp;gt;&amp;gt;" style="rounded=0;orthogonalLoop=1;jettySize=auto;html=1;endArrow=open;endFill=0;dashed=1;" edge="1" parent="1" source="wHWXGaC2DuD7eq64icSw-199" target="wHWXGaC2DuD7eq64icSw-22">
          <mxGeometry relative="1" as="geometry" />
        </mxCell>
        <mxCell id="wHWXGaC2DuD7eq64icSw-199" value="알림/즐겨찾기 추가한&lt;div&gt;공연/전시 일정을 달력으로 조회&lt;/div&gt;" style="ellipse;whiteSpace=wrap;html=1;" vertex="1" parent="1">
          <mxGeometry x="130" y="-790" width="180" height="80" as="geometry" />
        </mxCell>
        <mxCell id="wHWXGaC2DuD7eq64icSw-200" style="edgeStyle=orthogonalEdgeStyle;rounded=0;orthogonalLoop=1;jettySize=auto;html=1;entryX=0;entryY=0.5;entryDx=0;entryDy=0;" edge="1" parent="1" source="wHWXGaC2DuD7eq64icSw-1" target="wHWXGaC2DuD7eq64icSw-182">
          <mxGeometry relative="1" as="geometry">
            <mxPoint x="155" y="415" as="sourcePoint" />
            <mxPoint x="435" y="640" as="targetPoint" />
            <Array as="points">
              <mxPoint x="210" y="200" />
              <mxPoint x="210" y="80" />
            </Array>
          </mxGeometry>
        </mxCell>
        <mxCell id="wHWXGaC2DuD7eq64icSw-201" value="게시글 스크랩&amp;nbsp;" style="ellipse;whiteSpace=wrap;html=1;" vertex="1" parent="1">
          <mxGeometry x="1470" y="-25" width="130" height="70" as="geometry" />
        </mxCell>
        <mxCell id="wHWXGaC2DuD7eq64icSw-202" value="&amp;lt;&amp;lt; extends &amp;gt;&amp;gt;" style="edgeStyle=none;html=1;endSize=12;endArrow=open;endFill=0;rounded=0;entryX=1;entryY=0;entryDx=0;entryDy=0;dashed=1;exitX=0.327;exitY=0.995;exitDx=0;exitDy=0;exitPerimeter=0;" edge="1" parent="1" source="wHWXGaC2DuD7eq64icSw-201" target="wHWXGaC2DuD7eq64icSw-158">
          <mxGeometry width="160" relative="1" as="geometry">
            <mxPoint x="1310" y="400" as="sourcePoint" />
            <mxPoint x="1310" y="290" as="targetPoint" />
          </mxGeometry>
        </mxCell>
        <mxCell id="wHWXGaC2DuD7eq64icSw-203" value="스크랩한 게시글 목록 조회" style="ellipse;whiteSpace=wrap;html=1;" vertex="1" parent="1">
          <mxGeometry x="190" y="-870" width="180" height="70" as="geometry" />
        </mxCell>
        <mxCell id="wHWXGaC2DuD7eq64icSw-204" value="&amp;lt;&amp;lt;include&amp;gt;&amp;gt;" style="html=1;verticalAlign=bottom;labelBackgroundColor=none;endArrow=open;endFill=0;dashed=1;rounded=0;entryX=0.667;entryY=0.962;entryDx=0;entryDy=0;exitX=0.5;exitY=0;exitDx=0;exitDy=0;entryPerimeter=0;" edge="1" parent="1" source="wHWXGaC2DuD7eq64icSw-182" target="wHWXGaC2DuD7eq64icSw-22">
          <mxGeometry x="0.2731" y="-6" width="160" relative="1" as="geometry">
            <mxPoint x="320" y="-170" as="sourcePoint" />
            <mxPoint x="415" y="-300" as="targetPoint" />
            <mxPoint y="1" as="offset" />
          </mxGeometry>
        </mxCell>
        <mxCell id="wHWXGaC2DuD7eq64icSw-205" value="&amp;lt;&amp;lt;include&amp;gt;&amp;gt;" style="html=1;verticalAlign=bottom;labelBackgroundColor=none;endArrow=open;endFill=0;dashed=1;rounded=0;entryX=1;entryY=1;entryDx=0;entryDy=0;exitX=0;exitY=0;exitDx=0;exitDy=0;" edge="1" parent="1" source="wHWXGaC2DuD7eq64icSw-201" target="wHWXGaC2DuD7eq64icSw-22">
          <mxGeometry x="0.5805" y="-3" width="160" relative="1" as="geometry">
            <mxPoint x="375" y="60" as="sourcePoint" />
            <mxPoint x="437" y="-303" as="targetPoint" />
            <mxPoint as="offset" />
          </mxGeometry>
        </mxCell>
        <mxCell id="wHWXGaC2DuD7eq64icSw-214" value="&amp;lt;&amp;lt;include&amp;gt;&amp;gt;" style="rounded=0;orthogonalLoop=1;jettySize=auto;html=1;endArrow=open;endFill=0;dashed=1;exitX=0.727;exitY=0.983;exitDx=0;exitDy=0;entryX=0.5;entryY=0;entryDx=0;entryDy=0;exitPerimeter=0;" edge="1" parent="1" source="wHWXGaC2DuD7eq64icSw-203" target="wHWXGaC2DuD7eq64icSw-22">
          <mxGeometry relative="1" as="geometry">
            <mxPoint x="248" y="-701" as="sourcePoint" />
            <mxPoint x="398" y="-374" as="targetPoint" />
          </mxGeometry>
        </mxCell>
        <mxCell id="wHWXGaC2DuD7eq64icSw-215" value="&amp;lt;&amp;lt;include&amp;gt;&amp;gt;" style="rounded=0;orthogonalLoop=1;jettySize=auto;html=1;endArrow=open;endFill=0;dashed=1;exitX=0.5;exitY=1;exitDx=0;exitDy=0;entryX=0.596;entryY=0.04;entryDx=0;entryDy=0;entryPerimeter=0;" edge="1" parent="1" source="wHWXGaC2DuD7eq64icSw-194" target="wHWXGaC2DuD7eq64icSw-22">
          <mxGeometry relative="1" as="geometry">
            <mxPoint x="334" y="-840" as="sourcePoint" />
            <mxPoint x="415" y="-375" as="targetPoint" />
          </mxGeometry>
        </mxCell>
        <mxCell id="wHWXGaC2DuD7eq64icSw-216" value="&amp;lt;&amp;lt;include&amp;gt;&amp;gt;" style="rounded=0;orthogonalLoop=1;jettySize=auto;html=1;endArrow=open;endFill=0;dashed=1;exitX=0.5;exitY=1;exitDx=0;exitDy=0;entryX=0.724;entryY=0.096;entryDx=0;entryDy=0;entryPerimeter=0;" edge="1" parent="1" source="wHWXGaC2DuD7eq64icSw-190" target="wHWXGaC2DuD7eq64icSw-22">
          <mxGeometry relative="1" as="geometry">
            <mxPoint x="400" y="-910" as="sourcePoint" />
            <mxPoint x="439" y="-370" as="targetPoint" />
          </mxGeometry>
        </mxCell>
        <mxCell id="wHWXGaC2DuD7eq64icSw-217" value="&amp;lt;&amp;lt;include&amp;gt;&amp;gt;" style="rounded=0;orthogonalLoop=1;jettySize=auto;html=1;endArrow=open;endFill=0;dashed=1;exitX=0.5;exitY=1;exitDx=0;exitDy=0;entryX=1;entryY=0;entryDx=0;entryDy=0;" edge="1" parent="1" source="wHWXGaC2DuD7eq64icSw-193" target="wHWXGaC2DuD7eq64icSw-22">
          <mxGeometry relative="1" as="geometry">
            <mxPoint x="840" y="-1100" as="sourcePoint" />
            <mxPoint x="711.475433485849" y="-433.71691119714524" as="targetPoint" />
          </mxGeometry>
        </mxCell>
        <mxCell id="wHWXGaC2DuD7eq64icSw-230" style="rounded=0;orthogonalLoop=1;jettySize=auto;html=1;" edge="1" parent="1" source="wHWXGaC2DuD7eq64icSw-219" target="wHWXGaC2DuD7eq64icSw-225">
          <mxGeometry relative="1" as="geometry" />
        </mxCell>
        <mxCell id="wHWXGaC2DuD7eq64icSw-231" style="rounded=0;orthogonalLoop=1;jettySize=auto;html=1;" edge="1" parent="1" source="wHWXGaC2DuD7eq64icSw-219" target="wHWXGaC2DuD7eq64icSw-226">
          <mxGeometry relative="1" as="geometry" />
        </mxCell>
        <mxCell id="wHWXGaC2DuD7eq64icSw-250" style="rounded=0;orthogonalLoop=1;jettySize=auto;html=1;edgeStyle=orthogonalEdgeStyle;" edge="1" parent="1" source="wHWXGaC2DuD7eq64icSw-219" target="wHWXGaC2DuD7eq64icSw-241">
          <mxGeometry relative="1" as="geometry">
            <Array as="points">
              <mxPoint x="160" y="-1550" />
            </Array>
          </mxGeometry>
        </mxCell>
        <mxCell id="wHWXGaC2DuD7eq64icSw-219" value="관리자&lt;div&gt;&lt;br&gt;&lt;/div&gt;" style="shape=umlActor;verticalLabelPosition=top;verticalAlign=bottom;html=1;outlineConnect=0;labelPosition=center;align=center;fontSize=20;" vertex="1" parent="1">
          <mxGeometry x="670" y="-1630" width="55" height="110" as="geometry" />
        </mxCell>
        <mxCell id="wHWXGaC2DuD7eq64icSw-224" value="&amp;lt;&amp;lt;include&amp;gt;&amp;gt;" style="rounded=0;orthogonalLoop=1;jettySize=auto;html=1;endArrow=open;endFill=0;dashed=1;exitX=0.5;exitY=1;exitDx=0;exitDy=0;entryX=1;entryY=0;entryDx=0;entryDy=0;" edge="1" parent="1" source="wHWXGaC2DuD7eq64icSw-135" target="wHWXGaC2DuD7eq64icSw-22">
          <mxGeometry relative="1" as="geometry">
            <mxPoint x="590" y="-1030" as="sourcePoint" />
            <mxPoint x="461" y="-364" as="targetPoint" />
          </mxGeometry>
        </mxCell>
        <mxCell id="wHWXGaC2DuD7eq64icSw-229" style="rounded=0;orthogonalLoop=1;jettySize=auto;html=1;" edge="1" parent="1" source="wHWXGaC2DuD7eq64icSw-225" target="wHWXGaC2DuD7eq64icSw-135">
          <mxGeometry relative="1" as="geometry" />
        </mxCell>
        <mxCell id="wHWXGaC2DuD7eq64icSw-225" value="공연/전시 등록&amp;nbsp;&lt;span style=&quot;background-color: transparent; color: light-dark(rgb(0, 0, 0), rgb(255, 255, 255));&quot;&gt;신청&lt;/span&gt;&lt;div&gt;&lt;span style=&quot;background-color: transparent; color: light-dark(rgb(0, 0, 0), rgb(255, 255, 255));&quot;&gt;목록&lt;/span&gt;&lt;span style=&quot;background-color: transparent; color: light-dark(rgb(0, 0, 0), rgb(255, 255, 255));&quot;&gt;&amp;nbsp;조회&lt;/span&gt;&lt;/div&gt;" style="ellipse;whiteSpace=wrap;html=1;" vertex="1" parent="1">
          <mxGeometry x="672.5" y="-1340" width="140" height="65" as="geometry" />
        </mxCell>
        <mxCell id="wHWXGaC2DuD7eq64icSw-226" value="공연/전시 등록" style="ellipse;whiteSpace=wrap;html=1;" vertex="1" parent="1">
          <mxGeometry x="520" y="-1335" width="140" height="65" as="geometry" />
        </mxCell>
        <mxCell id="wHWXGaC2DuD7eq64icSw-241" value="&lt;span style=&quot;background-color: transparent; color: light-dark(rgb(0, 0, 0), rgb(255, 255, 255));&quot;&gt;신고기능&lt;/span&gt;" style="ellipse;whiteSpace=wrap;html=1;" vertex="1" parent="1">
          <mxGeometry x="90" y="-1275" width="140" height="60" as="geometry" />
        </mxCell>
        <mxCell id="wHWXGaC2DuD7eq64icSw-242" value="&lt;span style=&quot;background-color: transparent; color: light-dark(rgb(0, 0, 0), rgb(255, 255, 255));&quot;&gt;채팅방 메세지 신고&lt;/span&gt;" style="ellipse;whiteSpace=wrap;html=1;" vertex="1" parent="1">
          <mxGeometry x="280" y="-1200" width="140" height="50" as="geometry" />
        </mxCell>
        <mxCell id="wHWXGaC2DuD7eq64icSw-243" value="&lt;span style=&quot;background-color: transparent; color: light-dark(rgb(0, 0, 0), rgb(255, 255, 255));&quot;&gt;후기 댓글 신고&lt;/span&gt;" style="ellipse;whiteSpace=wrap;html=1;" vertex="1" parent="1">
          <mxGeometry x="280" y="-1270" width="140" height="50" as="geometry" />
        </mxCell>
        <mxCell id="wHWXGaC2DuD7eq64icSw-244" value="후기 게시글&lt;span style=&quot;background-color: transparent; color: light-dark(rgb(0, 0, 0), rgb(255, 255, 255));&quot;&gt;&amp;nbsp;신고&lt;/span&gt;" style="ellipse;whiteSpace=wrap;html=1;" vertex="1" parent="1">
          <mxGeometry x="270" y="-1332.5" width="140" height="50" as="geometry" />
        </mxCell>
        <mxCell id="wHWXGaC2DuD7eq64icSw-245" value="" style="edgeStyle=none;html=1;endSize=12;endArrow=block;endFill=0;rounded=0;entryX=1;entryY=0;entryDx=0;entryDy=0;exitX=0;exitY=1;exitDx=0;exitDy=0;" edge="1" parent="1" source="wHWXGaC2DuD7eq64icSw-244" target="wHWXGaC2DuD7eq64icSw-241">
          <mxGeometry width="160" relative="1" as="geometry">
            <mxPoint x="350" y="-1930" as="sourcePoint" />
            <mxPoint x="510" y="-1930" as="targetPoint" />
          </mxGeometry>
        </mxCell>
        <mxCell id="wHWXGaC2DuD7eq64icSw-246" value="" style="edgeStyle=none;html=1;endSize=12;endArrow=block;endFill=0;rounded=0;entryX=1;entryY=0.5;entryDx=0;entryDy=0;exitX=0;exitY=0.5;exitDx=0;exitDy=0;" edge="1" parent="1" source="wHWXGaC2DuD7eq64icSw-243" target="wHWXGaC2DuD7eq64icSw-241">
          <mxGeometry width="160" relative="1" as="geometry">
            <mxPoint x="550" y="-2018" as="sourcePoint" />
            <mxPoint x="479" y="-1981" as="targetPoint" />
          </mxGeometry>
        </mxCell>
        <mxCell id="wHWXGaC2DuD7eq64icSw-247" value="" style="edgeStyle=none;html=1;endSize=12;endArrow=block;endFill=0;rounded=0;entryX=1;entryY=1;entryDx=0;entryDy=0;exitX=0;exitY=0.5;exitDx=0;exitDy=0;" edge="1" parent="1" source="wHWXGaC2DuD7eq64icSw-242" target="wHWXGaC2DuD7eq64icSw-241">
          <mxGeometry width="160" relative="1" as="geometry">
            <mxPoint x="380" y="-2228" as="sourcePoint" />
            <mxPoint x="289" y="-2191" as="targetPoint" />
          </mxGeometry>
        </mxCell>
      </root>
    </mxGraphModel>
  </diagram>
</mxfile>
